<?xml version="1.0" standalone="no"?>
<!DOCTYPE svg PUBLIC "-//W3C//DTD SVG 20010904//EN"
 "http://www.w3.org/TR/2001/REC-SVG-20010904/DTD/svg10.dtd">
<svg version="1.0" xmlns="http://www.w3.org/2000/svg"
 viewBox="0 0 3129.000000 3125.000000"
 preserveAspectRatio="xMidYMid meet">
<metadata>
Created by potrace 1.15, written by Peter Selinger 2001-2017
</metadata>
<g transform="translate(0.000000,3125.000000) scale(0.100000,-0.100000)"
fill="#000000" stroke="none">
<path d="M13972 31238 c-23 -23 -12 -63 33 -123 148 -195 222 -479 195 -744
-44 -430 -259 -771 -649 -1033 -295 -197 -653 -319 -1074 -364 -190 -21 -586
-20 -837 0 -107 9 -350 34 -540 56 -613 69 -852 83 -1152 69 -426 -20 -778
-119 -1048 -293 -39 -25 -75 -46 -81 -46 -6 0 -34 20 -62 45 -200 176 -497
330 -781 405 -198 52 -291 64 -521 64 -175 0 -229 -3 -327 -22 -536 -101 -957
-425 -1193 -917 -82 -172 -124 -305 -151 -487 -8 -56 -16 -103 -17 -105 -1 -1
-32 7 -68 17 l-66 18 -564 565 c-574 574 -809 798 -888 845 -58 34 -175 42
-249 18 -60 -20 -135 -84 -163 -138 -35 -68 -35 -120 1 -253 48 -181 180 -612
262 -863 l74 -222 -46 -16 c-661 -239 -1208 -699 -1542 -1299 -126 -226 -209
-453 -348 -952 -143 -511 -197 -667 -309 -891 -202 -404 -483 -657 -826 -748
-82 -22 -123 -27 -225 -27 -146 -1 -227 16 -340 70 -153 73 -293 255 -334 433
-15 63 -14 71 8 170 13 58 41 150 61 205 59 159 57 195 -11 195 -29 0 -39 -8
-73 -53 -103 -136 -123 -234 -118 -592 4 -255 5 -275 30 -362 88 -307 239
-505 541 -707 337 -225 771 -348 1281 -363 845 -24 1629 245 2332 799 6 5 -15
-94 -47 -221 -71 -276 -84 -324 -160 -556 -32 -99 -82 -268 -110 -375 -77
-291 -118 -425 -160 -523 -112 -259 -243 -385 -505 -486 -269 -104 -432 -352
-485 -742 -15 -105 -15 -387 0 -504 27 -224 97 -477 166 -604 188 -346 645
-655 1202 -815 137 -40 341 -76 421 -76 31 1 97 7 146 15 137 23 585 29 1065
16 234 -7 611 -12 838 -13 226 0 412 -3 412 -8 0 -4 -11 -63 -25 -131 -46
-224 -124 -642 -165 -884 -36 -218 -39 -241 -25 -262 18 -26 56 -30 78 -8 9 8
18 34 22 57 61 377 222 1227 234 1239 3 4 98 12 211 18 752 44 1364 165 1880
373 241 97 632 313 728 401 38 36 24 87 -25 87 -13 0 -83 -39 -156 -88 -519
-343 -1194 -553 -2067 -641 -469 -48 -1048 -57 -1969 -32 -549 15 -847 11
-1041 -15 -140 -18 -214 -15 -365 16 -339 69 -707 233 -962 428 -151 115 -287
269 -351 397 -70 142 -133 405 -152 635 -24 289 21 572 121 758 77 145 168
227 312 282 218 85 352 188 462 359 91 141 141 275 241 651 36 135 92 326 124
425 82 252 109 349 191 680 l72 290 124 129 c214 222 429 490 707 879 86 121
101 137 120 130 38 -13 156 -4 245 18 318 79 827 375 1176 684 l70 62 -3 -207
c-5 -295 26 -499 115 -754 72 -209 231 -486 398 -696 104 -130 393 -412 555
-542 220 -176 383 -291 885 -628 489 -328 670 -456 855 -605 692 -559 1020
-1125 1047 -1810 20 -507 -149 -1024 -457 -1400 -77 -94 -247 -257 -342 -328
-293 -219 -637 -360 -999 -412 -122 -17 -398 -20 -518 -4 -78 9 -86 9 -104
-10 -35 -34 -16 -68 56 -100 345 -154 753 -262 1142 -302 156 -16 518 -16 665
0 665 71 1210 298 1660 693 l84 74 74 -91 c116 -140 442 -460 592 -579 145
-116 388 -281 537 -365 103 -58 352 -178 426 -206 45 -17 51 -23 89 -99 62
-123 231 -425 321 -571 470 -768 982 -1291 1509 -1540 51 -24 254 -103 451
-175 739 -270 1131 -441 1487 -645 599 -344 994 -754 1285 -1335 238 -476 390
-1019 457 -1635 21 -190 17 -822 -5 -1005 -57 -461 -178 -893 -337 -1210 -54
-108 -51 -121 38 -162 344 -156 720 -258 1142 -310 123 -15 630 -16 733 -1
l67 9 10 -35 c487 -1860 676 -4350 515 -6776 -17 -246 -27 -331 -57 -455 -22
-95 -96 -290 -110 -290 -4 0 -72 32 -149 70 -639 321 -1346 553 -2050 674
-362 62 -695 93 -1108 103 l-284 6 7 756 c8 872 23 1783 36 2151 7 204 6 259
-4 275 -9 13 -66 39 -167 74 -1007 355 -2048 930 -2849 1575 -333 268 -708
620 -937 881 -614 697 -1002 1530 -1120 2405 -27 205 -25 712 4 900 29 183 67
350 115 500 68 214 64 197 43 220 -47 52 -76 17 -134 -164 -313 -967 -153
-2097 445 -3137 170 -296 378 -582 623 -854 l72 -80 -58 -7 c-125 -15 -687
-21 -858 -9 -558 40 -1081 151 -1583 337 -1409 524 -2618 1596 -3432 3043
-511 910 -846 1964 -945 2976 -9 94 -20 180 -25 192 -11 28 -7 29 220 44 664
43 1453 -81 2168 -341 75 -28 142 -50 149 -50 14 0 2 -11 634 560 839 757 789
710 789 740 0 25 -27 50 -52 50 -11 0 -48 -25 -81 -56 -34 -31 -287 -260 -562
-508 -275 -248 -555 -501 -622 -563 l-122 -112 -68 25 c-505 190 -1083 316
-1628 355 -210 14 -647 7 -835 -15 -935 -110 -1714 -480 -2320 -1102 -222
-228 -381 -440 -530 -709 -40 -71 -105 -179 -145 -240 -75 -113 -229 -305
-245 -305 -5 0 -14 8 -19 18 -13 24 -325 313 -456 422 -526 438 -1107 781
-1731 1024 -133 51 -431 152 -522 176 -27 7 -42 16 -39 23 146 377 401 846
649 1194 816 1143 1951 1868 3583 2288 645 166 1331 285 2434 421 335 42 354
47 336 100 -9 24 -17 30 -49 32 -36 3 -590 -62 -1056 -124 -290 -39 -760 -118
-1065 -179 -1627 -328 -2777 -876 -3647 -1739 -923 -915 -1498 -2104 -1644
-3395 -21 -189 -32 -488 -19 -515 13 -27 234 -175 377 -252 316 -170 582 -262
893 -310 152 -23 489 -23 640 0 536 83 992 311 1360 680 180 181 304 346 435
581 106 189 161 274 271 420 523 696 1313 1170 2232 1339 204 38 180 57 200
-151 34 -359 106 -769 193 -1113 37 -145 42 -175 30 -182 -8 -4 -65 -45 -128
-89 -726 -520 -1292 -1186 -1674 -1974 -254 -523 -412 -1069 -485 -1672 -16
-134 -22 -260 -26 -510 -6 -347 2 -499 37 -780 33 -255 115 -642 147 -692 14
-22 19 -23 87 -18 39 3 163 17 276 31 234 28 565 57 990 86 162 11 336 27 385
35 497 81 939 363 1224 780 170 249 247 447 315 813 65 345 155 604 295 841
39 66 41 108 5 122 -43 16 -61 2 -113 -90 -133 -231 -235 -520 -287 -809 -13
-75 -19 -92 -31 -87 -70 26 -620 113 -883 139 -416 41 -1017 46 -1400 12 -295
-27 -748 -93 -907 -133 -22 -5 -23 -2 -23 43 0 151 68 579 136 854 161 655
452 1267 863 1815 302 403 712 803 1126 1098 l119 86 82 -247 c272 -825 653
-1564 1148 -2226 236 -316 435 -543 732 -836 347 -342 647 -583 1024 -828 80
-52 156 -102 170 -112 54 -41 324 -188 504 -276 184 -89 468 -207 609 -254 62
-20 71 -26 84 -59 237 -579 512 -1030 926 -1516 137 -161 429 -458 607 -618
575 -515 1247 -956 2077 -1364 l272 -134 -80 -102 c-294 -376 -613 -943 -944
-1682 -215 -479 -526 -1219 -523 -1245 3 -22 26 -36 177 -112 994 -495 2052
-742 2941 -689 243 15 552 53 611 76 12 4 18 -1 23 -19 8 -31 23 -35 241 -71
336 -55 779 -103 1142 -125 223 -13 894 -13 1003 0 377 46 709 193 997 443
288 250 506 627 582 1007 49 245 88 997 98 1880 21 1906 -164 3696 -536 5194
-32 131 -66 245 -74 253 -14 14 -28 14 -129 2 -148 -18 -604 -19 -753 0 -332
40 -634 115 -932 233 l-151 60 39 86 c154 333 262 743 314 1187 22 189 31 683
16 885 -70 923 -366 1777 -817 2356 -155 200 -357 398 -568 559 l-96 73 52 15
c187 53 389 77 644 77 302 0 668 -44 894 -106 633 -177 1213 -649 1646 -1339
88 -140 283 -529 358 -710 159 -388 271 -742 497 -1567 220 -806 320 -1125
470 -1501 327 -819 782 -1439 1441 -1966 1072 -857 2495 -1228 3778 -985 609
115 1176 347 1705 699 702 466 1274 1104 1645 1835 225 444 373 920 441 1415
26 189 37 654 20 843 -57 634 -273 1226 -648 1783 -82 122 -111 148 -147 131
-18 -8 -28 -24 -36 -54 -198 -806 -998 -1623 -1910 -1952 -624 -224 -1241
-220 -1830 11 -1005 395 -1851 1436 -2511 3091 -50 125 -93 231 -96 235 -13
22 248 -155 422 -285 159 -118 274 -213 665 -548 152 -129 327 -276 390 -326
719 -572 1297 -796 1985 -771 408 16 774 110 1136 293 726 368 1170 986 1281
1784 19 141 16 507 -5 650 -49 320 -153 623 -302 876 -63 106 -86 134 -113
134 -39 0 -53 -24 -73 -128 -94 -489 -455 -936 -911 -1128 -401 -170 -811
-100 -1141 194 -254 226 -443 529 -757 1212 -411 895 -825 1515 -1419 2122
l-115 118 80 74 c147 137 320 343 448 536 445 669 583 1408 409 2190 -149 674
-502 1298 -1019 1800 -368 358 -793 617 -1251 764 -164 53 -208 47 -201 -26 3
-32 4 -33 123 -73 68 -23 155 -61 201 -89 294 -175 510 -503 585 -888 31 -156
31 -371 0 -515 -95 -452 -397 -861 -861 -1169 -382 -254 -864 -411 -1465 -478
-287 -33 -419 -37 -1220 -46 -959 -10 -1179 -22 -1568 -86 -249 -41 -578 -128
-732 -194 l-42 -18 -17 81 c-19 86 -37 117 -68 117 -39 0 -57 -19 -63 -68 -4
-26 -16 -85 -26 -132 l-20 -85 -86 -45 c-101 -52 -302 -184 -388 -253 -234
-190 -424 -414 -546 -646 -34 -64 -35 -64 -98 -82 -205 -58 -512 -65 -706 -16
-715 181 -1228 918 -1430 2052 -28 157 -105 680 -105 711 0 4 89 -83 198 -193
268 -271 465 -437 714 -601 328 -217 642 -349 983 -413 155 -29 439 -37 601
-15 882 116 1679 813 1989 1739 51 155 98 378 116 550 17 175 7 557 -20 721
-77 475 -284 988 -574 1421 -47 69 -53 75 -88 75 -58 0 -60 -35 -15 -198 113
-407 -5 -836 -318 -1160 -346 -359 -847 -470 -1357 -301 -339 113 -672 330
-979 638 -216 217 -349 393 -760 1006 -385 574 -509 740 -736 982 -125 134
-289 278 -436 381 l-106 76 115 120 c501 525 826 1170 928 1841 23 150 24 449
1 615 -91 671 -453 1320 -1110 1988 -157 159 -183 182 -211 182 -17 0 -36 -5
-43 -12z m508 -615 c379 -460 627 -940 719 -1395 34 -166 45 -280 45 -458 -1
-202 -18 -342 -69 -546 -144 -586 -456 -1133 -893 -1567 l-99 -99 -74 40
c-236 129 -578 241 -879 287 -142 22 -495 31 -646 16 -231 -23 -496 -88 -706
-172 -57 -23 -109 -43 -115 -46 -7 -3 -13 1 -13 9 0 30 -129 421 -144 436 -29
29 -799 -9 -1073 -53 -123 -20 -120 -20 -115 14 5 37 -18 59 -173 163 -230
155 -523 277 -799 333 -68 14 -126 25 -128 25 -3 0 -8 55 -11 123 -16 309
-136 606 -347 858 -33 39 -60 75 -60 78 0 11 147 97 240 140 282 130 570 184
995 184 273 0 368 -7 910 -68 611 -68 638 -70 1040 -70 397 0 467 6 730 61
242 51 540 167 730 284 326 200 568 482 683 795 93 253 113 553 52 790 -11 43
-20 81 -20 84 1 10 102 -104 220 -246z m-6849 -1463 c316 -32 627 -143 884
-315 418 -279 654 -665 690 -1129 l7 -88 -139 7 c-515 26 -1033 -128 -1430
-426 -143 -108 -346 -317 -433 -447 -15 -22 -16 -22 -75 55 -33 42 -116 134
-185 204 -271 274 -593 487 -959 635 l-106 43 3 63 c13 275 165 626 383 884
318 376 826 568 1360 514z m-3499 -73 c42 -25 226 -195 481 -444 145 -142 176
-177 167 -188 -41 -49 -270 -173 -413 -224 -86 -30 -277 -74 -285 -66 -17 16
-232 755 -232 794 0 44 41 102 89 128 60 31 142 32 193 0z m1023 -983 l279
-286 -90 -87 c-243 -234 -542 -365 -881 -387 l-100 -7 -37 104 c-21 57 -78
219 -126 359 l-88 256 86 18 c201 41 426 137 593 255 46 33 84 60 84 60 1 1
126 -128 280 -285z m762 -792 c16 -23 15 -25 -38 -78 -170 -174 -472 -377
-730 -491 -153 -67 -482 -174 -494 -161 -6 7 -245 628 -245 636 0 11 49 22 99
22 71 0 227 32 342 70 216 71 393 178 556 335 l98 95 198 -203 c109 -111 205
-212 214 -225z m-1703 132 c220 -613 511 -1324 902 -2202 57 -127 104 -237
104 -243 0 -26 -368 -528 -561 -764 -146 -180 -451 -485 -599 -599 -506 -392
-1063 -625 -1695 -711 -184 -25 -537 -31 -724 -11 -521 56 -957 240 -1242 525
-113 113 -186 230 -235 375 -23 67 -58 226 -51 233 2 1 20 -21 41 -51 188
-273 562 -380 943 -270 476 137 822 552 1048 1254 20 63 79 265 130 450 140
503 216 709 341 934 309 553 815 989 1419 1221 61 23 111 41 113 40 1 -1 31
-82 66 -181z m1696 129 c372 -138 747 -389 1019 -680 l91 -98 -122 -6 c-123
-6 -178 -16 -254 -43 l-41 -14 -159 171 c-87 95 -276 295 -418 446 -162 171
-250 271 -235 266 13 -4 67 -23 119 -42z m3281 -53 c233 -24 511 -99 713 -194
99 -46 257 -136 315 -180 l34 -25 -29 -12 c-16 -6 -58 -17 -94 -25 -241 -55
-333 -93 -466 -192 -245 -182 -464 -545 -481 -797 -8 -118 13 -374 41 -495 82
-358 311 -743 640 -1073 204 -205 374 -340 906 -719 424 -302 636 -467 806
-630 551 -529 880 -1218 976 -2043 19 -164 16 -569 -6 -740 -108 -853 -496
-1543 -1107 -1967 -350 -243 -746 -394 -1229 -469 -197 -31 -671 -34 -880 -6
-185 25 -359 60 -525 107 -178 50 -229 68 -195 69 178 6 440 51 613 108 735
237 1262 786 1446 1506 58 227 66 290 66 572 0 283 -7 342 -66 565 -93 350
-290 693 -576 1001 -284 306 -606 558 -1273 998 -652 430 -926 636 -1203 910
-243 238 -399 447 -527 702 -153 306 -220 620 -207 978 27 777 438 1470 1077
1819 215 117 534 211 795 235 91 8 340 6 436 -3z m-3129 -359 c24 -27 130
-141 236 -254 105 -113 192 -208 192 -212 0 -13 -70 -96 -160 -189 -285 -296
-651 -508 -1054 -610 -121 -31 -303 -63 -310 -55 -10 12 -266 632 -263 636 3
2 44 15 93 28 371 99 735 289 1023 530 47 40 108 96 136 124 27 28 52 51 56
51 4 0 27 -22 51 -49z m5477 -138 c17 -33 132 -417 167 -558 48 -195 73 -345
86 -522 41 -532 -132 -1024 -525 -1493 -134 -161 -482 -500 -512 -500 -24 0
-529 383 -662 502 -58 53 -60 56 -37 61 19 3 29 -2 40 -19 8 -13 21 -35 29
-49 10 -15 25 -25 39 -25 49 0 267 189 376 325 194 244 321 535 371 850 29
181 10 544 -31 585 -48 48 -407 70 -598 36 -212 -37 -451 -139 -612 -260 -100
-75 -242 -219 -295 -300 -21 -31 -40 -54 -43 -52 -22 23 -60 408 -48 497 11
85 63 219 107 275 68 89 231 238 336 308 336 223 757 318 1525 345 128 4 243
9 255 9 12 1 26 -6 32 -15z m1496 -223 c526 -43 1022 -237 1425 -558 136 -108
367 -344 501 -512 151 -190 251 -330 542 -765 425 -636 592 -849 855 -1089
382 -349 782 -560 1192 -628 113 -19 367 -16 474 6 282 55 506 175 706 376
266 267 402 580 404 936 1 109 4 138 12 125 7 -9 48 -88 92 -176 160 -320 255
-607 314 -950 20 -116 23 -163 22 -425 0 -275 -2 -305 -27 -440 -58 -319 -161
-592 -324 -861 -258 -425 -613 -756 -1028 -960 -495 -242 -977 -275 -1500
-102 -509 168 -1002 526 -1549 1126 l-98 107 -39 228 c-56 334 -85 469 -156
707 -376 1276 -1557 2206 -2860 2252 -95 3 -173 9 -173 12 0 4 11 51 25 106
44 173 58 316 52 545 -6 222 -24 356 -78 584 -26 106 -29 130 -18 137 8 5 61
27 118 50 362 142 741 200 1116 169z m-5947 -126 c28 -3 52 -8 52 -11 0 -3
-15 -31 -34 -62 -19 -31 -57 -103 -86 -160 l-52 -104 -27 29 c-16 16 -81 86
-145 156 l-117 127 43 12 c90 24 210 29 366 13z m-340 -253 c94 -104 172 -196
172 -203 0 -8 -13 -54 -30 -102 -16 -48 -41 -138 -54 -199 l-25 -112 -83 -79
c-380 -360 -1020 -729 -1308 -753 -65 -5 -66 -5 -79 23 -66 142 -312 701 -317
718 -5 21 0 23 78 35 350 52 727 212 1032 439 107 80 316 278 388 368 23 30
45 54 48 54 3 0 83 -85 178 -189z m3960 -303 c63 -8 85 -16 93 -30 15 -28 25
-238 17 -363 -24 -411 -233 -834 -544 -1106 -43 -38 -81 -69 -84 -69 -3 0 -20
27 -37 59 -98 177 -315 414 -605 659 -86 73 -159 140 -162 148 -13 35 -4 64
47 141 195 296 509 496 877 558 97 17 292 18 398 3z m-984 -1149 c118 -114
234 -246 276 -314 13 -22 12 -26 -15 -51 l-29 -27 -74 79 c-40 43 -103 115
-139 159 -64 80 -233 325 -233 339 0 14 79 -55 214 -185z m2341 121 c724 -59
1365 -349 1884 -854 435 -425 704 -901 860 -1526 56 -225 100 -484 171 -999
95 -690 146 -953 245 -1260 254 -788 705 -1318 1275 -1499 162 -51 277 -65
479 -59 272 9 447 54 706 182 195 97 311 181 466 335 174 173 301 369 369 565
l18 50 7 -39 c12 -59 -1 -391 -19 -484 -87 -469 -323 -884 -719 -1268 -262
-254 -571 -468 -932 -646 -967 -475 -2112 -556 -3130 -220 -694 229 -1314 661
-1800 1255 l-48 57 37 43 c424 493 668 1089 727 1775 15 178 7 570 -16 732
-106 780 -424 1447 -935 1960 -164 165 -280 264 -547 465 l-186 140 -26 75
-26 75 181 180 c196 195 311 333 436 520 74 112 183 316 220 413 l16 42 84 0
c46 0 137 -5 203 -10z m12445 -1805 c193 -127 319 -233 516 -429 307 -308 516
-600 695 -971 515 -1070 417 -2132 -277 -3025 -93 -119 -360 -400 -381 -400
-7 0 -63 46 -126 103 -962 869 -2123 1417 -3342 1577 -429 56 -999 54 -1425
-5 -495 -69 -1051 -239 -1470 -450 l-45 -23 -1 167 c0 91 -3 178 -7 192 -7 26
-3 28 86 62 200 76 386 127 627 171 400 74 775 96 1615 96 852 0 1254 28 1680
116 579 120 1057 358 1424 708 400 383 614 887 572 1349 -30 328 -138 604
-329 842 l-56 69 59 -33 c33 -18 116 -70 185 -116z m-3110 -3230 c1097 -114
2074 -500 2988 -1180 637 -473 1174 -1044 1608 -1705 212 -324 377 -629 583
-1076 311 -678 480 -954 733 -1200 189 -183 371 -287 589 -335 535 -117 1135
178 1476 726 89 142 181 359 205 480 5 25 59 -69 113 -194 269 -630 256 -1341
-35 -1929 -110 -222 -209 -361 -384 -540 -189 -194 -400 -345 -661 -473 -495
-243 -1048 -323 -1574 -229 -390 70 -779 255 -1211 573 -145 107 -307 240
-625 512 -494 422 -722 597 -1006 773 -79 50 -154 98 -166 109 -12 10 -51 83
-88 163 -80 173 -209 418 -313 590 -461 770 -1038 1350 -1697 1709 -607 331
-1365 503 -2033 462 -769 -47 -1411 -290 -1937 -733 -121 -102 -323 -310 -422
-435 -315 -396 -549 -909 -624 -1367 -7 -43 -18 -80 -24 -82 -6 -3 -46 12 -89
31 -77 36 -78 37 -107 103 -78 173 -160 435 -204 651 -93 458 -91 981 7 1431
24 114 89 345 117 421 20 52 24 57 79 79 108 43 377 179 492 247 161 96 335
216 465 319 132 106 385 356 479 474 241 302 412 654 481 987 13 63 25 117 27
118 2 2 49 26 105 54 535 267 1163 434 1813 481 172 12 664 4 840 -15z m-3066
-240 c-147 -261 -409 -507 -697 -651 -49 -25 -91 -43 -93 -41 -3 2 22 44 54
93 124 189 294 368 489 513 122 91 287 192 291 180 2 -5 -18 -47 -44 -94z
m-1849 -2556 c-25 -68 -81 -292 -104 -409 -125 -646 -70 -1336 154 -1935 19
-51 35 -95 35 -99 0 -3 -21 4 -47 15 -95 41 -434 170 -708 269 -521 189 -742
322 -1079 650 -284 276 -535 603 -798 1035 -82 135 -213 366 -256 451 l-21 41
107 -33 c257 -81 539 -138 837 -170 195 -20 611 -23 800 -5 355 34 734 113
1022 214 37 13 69 23 71 22 1 -1 -5 -22 -13 -46z m4055 -93 c1192 -163 2123
-769 2847 -1856 270 -404 454 -766 693 -1365 373 -930 742 -1585 1211 -2150
124 -150 427 -447 574 -565 447 -357 890 -556 1415 -637 176 -27 538 -24 729
6 535 82 1028 301 1501 667 142 110 449 413 560 554 194 245 343 507 431 759
l32 92 52 -79 c81 -120 172 -282 251 -447 417 -868 461 -1856 127 -2840 -521
-1535 -1907 -2743 -3498 -3049 -1750 -336 -3674 494 -4667 2014 -238 363 -419
756 -603 1305 -88 262 -160 510 -334 1145 -223 814 -334 1156 -511 1570 -381
890 -937 1531 -1625 1870 -303 149 -615 226 -1059 261 -186 15 -532 7 -685
-16 -120 -17 -314 -64 -377 -90 l-37 -15 -86 54 c-115 72 -223 132 -361 201
-63 31 -116 58 -118 60 -1 1 9 63 23 137 145 790 640 1523 1317 1954 138 88
405 220 561 277 280 104 596 172 927 201 107 9 600 -3 710 -18z m-19766 -3862
c293 -88 591 -206 901 -359 581 -286 1060 -622 1544 -1083 l154 -146 -64 -60
c-213 -197 -510 -372 -794 -469 -712 -242 -1413 -132 -2117 332 l-104 68 3 94
c13 341 73 749 158 1090 60 235 169 569 188 569 5 0 64 -16 131 -36z m6026
-4719 c222 -18 452 -47 655 -81 155 -26 375 -70 381 -77 7 -6 -43 -171 -80
-266 -219 -567 -725 -980 -1331 -1087 -44 -8 -242 -25 -440 -39 -506 -36
-1032 -85 -1172 -111 -36 -7 -34 -12 -78 184 -63 278 -101 572 -114 887 -11
264 -4 443 18 450 9 2 86 18 171 34 295 56 676 102 1000 121 215 12 768 4 990
-15z m4795 -1045 c534 -140 1100 -201 1658 -180 345 14 367 18 367 68 0 21 23
2 158 -129 680 -664 1457 -1211 2374 -1670 355 -177 784 -361 1112 -476 l138
-48 -6 -200 c-12 -405 -26 -1236 -36 -2205 -12 -1138 -27 -1913 -38 -1952 -7
-26 -10 -24 -89 76 -676 853 -1690 1439 -2762 1596 -74 11 -136 21 -138 24 -7
6 306 626 392 776 109 191 305 482 430 638 84 105 106 138 101 155 -4 18 -49
44 -213 121 -1696 804 -2898 1860 -3522 3096 -71 139 -171 359 -171 373 0 4
21 -1 48 -9 26 -8 115 -32 197 -54z m3004 -5246 c818 -150 1588 -551 2195
-1144 166 -162 299 -311 418 -467 l71 -93 -29 -126 c-16 -69 -31 -130 -35
-135 -15 -25 -384 -67 -664 -75 -776 -25 -1637 170 -2535 574 -247 111 -330
152 -330 164 0 12 113 268 236 533 93 201 358 731 389 779 18 28 20 28 84 22
36 -4 126 -18 200 -32z m3486 -435 c782 -45 1639 -250 2369 -566 163 -70 471
-217 523 -249 l32 -20 -50 -83 c-172 -287 -415 -510 -714 -656 -247 -121 -410
-160 -744 -176 -356 -17 -929 8 -1396 61 -269 31 -669 91 -680 102 -3 2 0 132
5 289 5 156 12 491 15 744 3 253 8 483 11 512 l5 52 62 4 c86 5 359 -2 562
-14z"/>
<path d="M6846 23688 c31 -113 27 -443 -6 -463 -5 -3 -50 2 -102 11 -168 29
-313 7 -478 -73 -81 -40 -109 -61 -190 -142 -74 -74 -105 -114 -137 -176 -78
-150 -106 -309 -83 -469 7 -48 14 -85 17 -82 3 3 20 39 38 80 200 460 785 608
1176 296 111 -88 199 -208 245 -334 l21 -58 11 58 c7 31 12 68 12 81 0 22 2
23 38 16 113 -24 223 5 301 80 45 44 101 145 101 184 l0 22 -37 -25 c-86 -58
-249 -70 -372 -28 -53 19 -54 20 -77 84 -13 36 -24 67 -24 69 0 2 19 1 43 -2
103 -11 188 35 255 140 94 148 78 324 -45 479 -40 50 -126 114 -171 128 l-22
7 25 -37 c64 -94 73 -261 22 -367 -34 -68 -95 -131 -160 -163 l-48 -25 -59 55
c-33 30 -86 72 -119 93 -34 21 -61 42 -61 46 0 5 8 21 18 35 99 143 69 349
-71 478 -32 30 -62 54 -67 54 -4 0 -2 -24 6 -52z"/>
<path d="M4494 20704 c-119 -42 -206 -197 -175 -312 7 -23 23 -54 36 -69 23
-27 25 -27 52 -12 29 16 32 34 17 106 -10 52 4 101 43 144 70 77 162 70 210
-16 41 -72 28 -162 -31 -212 -28 -24 -34 -61 -14 -81 21 -21 62 -13 96 18 49
45 72 103 72 186 0 184 -147 304 -306 248z"/>
<path d="M5907 19818 c-9 -7 -35 -49 -57 -92 -171 -335 -437 -540 -790 -611
-41 -8 -140 -18 -218 -22 -149 -6 -172 -13 -172 -53 0 -10 8 -26 17 -36 15
-15 34 -16 173 -11 271 10 471 72 677 209 155 104 327 308 412 488 37 77 39
104 9 124 -27 19 -30 19 -51 4z"/>
</g>
</svg>
